# xmcd
#
# Track frame offsets: 
#        150
#        32773
#        69796
#        107066
#        131890
#        165606
#        189832
#        214311
#        243843
#        277955
#        313268
#
# Disc length: 4706 seconds
#
# Revision: 0
# Processed by: cddbd v1.5.2PL0 Copyright (c) Steve Scherf et al.
# Submitted via: ExactAudioCopy v0.99pb4
#
DISCID=9812600b
DTITLE=Various Artist - Livin' The Night Life
DYEAR=2010
DGENRE=Disco
TTITLE0=Young and Co - I Like What You're Doing To Me
TTITLE1=Class Action - Weekend
TTITLE2=Serious Intention - You Don't Know (Remix)
TTITLE3=Cultural Vibe - Ma Foom Bay (Love Chant Remix)
TTITLE4=The Paul Simpson Connection - Treat Her Sweeter
TTITLE5=Adeva - In and Out Of My Life
TTITLE6=Sleeque - One For The Money
TTITLE7=Colonel Abrams - Music Is The Answer
TTITLE8=Dinosaur L - Go Bang # 5
TTITLE9=Cuba Gooding - Happiness Is Just Around The Bend
TTITLE10=K.I.D. -  Hupendi Muziki Wangu (You Don't Like My Music)
EXTD=
EXTT0=
EXTT1=
EXTT2=
EXTT3=
EXTT4=
EXTT5=
EXTT6=
EXTT7=
EXTT8=
EXTT9=
EXTT10=
PLAYORDER=
